<?xml version="1.0" encoding="UTF-8"?>
<svg xmlns="http://www.w3.org/2000/svg" viewBox="0 0 128 128">
  <path d="M105.64172,99.00579a3.10722,3.10722,0,0,0-2.19341-.913H90.92076c1.98784-5.48274,1.71261-9.269,1.71261-14.93629h17.02771a3.11533,3.11533,0,0,0,0-6.2306H92.63337V61.98483h10.81494a3.10245,3.10245,0,0,0,2.19341-.9081l6.31318-6.33258a3.12159,3.12159,0,0,0,0-4.40464,3.0895,3.0895,0,0,0-4.39012,0l-5.405,5.41961H91.73339a11.57114,11.57114,0,0,0-8.80123-6.938V42.04824a22.192,22.192,0,0,0-4.62478-13.67043l11.08205-12.173a3.11019,3.11019,0,0,0-4.58922-4.19907L73.77812,24.11078a18.25679,18.25679,0,0,0-20.80912,0L41.94685,12.00572a3.10956,3.10956,0,1,0-4.58751,4.19907l11.08034,12.173a22.16243,22.16243,0,0,0-4.62479,13.67043v7.05292a11.57268,11.57268,0,0,0-7.53365,6.658H25.84993l-5.40985-5.41961a3.11112,3.11112,0,0,0-4.39494,4.40464l6.318,6.33258a3.10538,3.10538,0,0,0,2.19829.9081H35.37631v14.9411H18.3486a3.1153,3.1153,0,0,0,0,6.2306H35.37631v5.13955a28.758,28.758,0,0,0,1.711,9.79674H24.56144a3.1101,3.1101,0,0,0-2.19829.913l-6.318,6.33259a3.11112,3.11112,0,0,0,4.39494,4.40463l5.40985-5.42284h14.4134a28.56057,28.56057,0,0,0,47.4879,0h14.40853l5.405,5.42284a3.08948,3.08948,0,0,0,4.39012,0,3.12158,3.12158,0,0,0,0-4.40463l-6.31318-6.33259ZM76.71938,42.04824V48.6641H50.02774V42.04824c0-8.25083,5.98287-14.959,13.34823-14.959,7.36048,0,13.34341,6.70815,13.34341,14.959ZM41.58427,88.29608V60.24628a5.35,5.35,0,0,1,5.337-5.35H60.69206V110.533A22.50138,22.50138,0,0,1,41.58427,88.29608Zm25.32057,22.29678V54.89628H81.09328a5.34683,5.34683,0,0,1,5.33219,5.35v28.0498A22.48949,22.48949,0,0,1,66.90484,110.59286Z" fill="#000"/>
</svg>
