<svg width="114" height="102" viewBox="0 0 114 102" fill="none" xmlns="http://www.w3.org/2000/svg">
  <path d="M113.9 51.9C113.9 45 108.3 39.4 101.4 39.4C98 39.4 95 40.7 92.8 42.9C84.3 36.8 72.5 32.8 59.5 32.3L65.2 5.59998L83.7 9.49998C83.9 14.2 87.8 18 92.6 18C97.5 18 101.5 14 101.5 9.09999C101.5 4.19999 97.5 0.199982 92.6 0.199982C89.1 0.199982 86.1 2.19998 84.7 5.19998L64 0.799988C63.4 0.699988 62.8 0.799983 62.3 1.09998C61.8 1.39998 61.5 1.89998 61.3 2.49998L55 32.3C41.7 32.7 29.8 36.6 21.2 42.9C19 40.8 15.9 39.4 12.6 39.4C5.69998 39.4 0.0999756 45 0.0999756 51.9C0.0999756 57 3.09998 61.3 7.49998 63.3C7.29998 64.5 7.19997 65.8 7.19997 67.1C7.19997 86.3 29.5 101.8 57.1 101.8C84.7 101.8 107 86.3 107 67.1C107 65.8 106.9 64.6 106.7 63.4C110.8 61.4 113.9 57 113.9 51.9ZM28.4 60.8C28.4 55.9 32.4 51.9 37.3 51.9C42.2 51.9 46.2 55.9 46.2 60.8C46.2 65.7 42.2 69.7 37.3 69.7C32.4 69.7 28.4 65.7 28.4 60.8ZM78.1 84.3C72 90.4 60.4 90.8 57 90.8C53.6 90.8 41.9 90.3 35.9 84.3C35 83.4 35 81.9 35.9 81C36.8 80.1 38.3 80.1 39.2 81C43 84.8 51.2 86.2 57.1 86.2C63 86.2 71.1 84.8 75 81C75.9 80.1 77.4 80.1 78.3 81C79 82 79 83.4 78.1 84.3ZM76.5 69.7C71.6 69.7 67.6 65.7 67.6 60.8C67.6 55.9 71.6 51.9 76.5 51.9C81.4 51.9 85.4 55.9 85.4 60.8C85.4 65.7 81.4 69.7 76.5 69.7Z" fill="white"/>
</svg>
