<?xml version="1.0" encoding="UTF-8"?><svg id="uuid-83a13f9f-3bf3-4eb4-9a8f-4e6a1f6ad05e" xmlns="http://www.w3.org/2000/svg" viewBox="0 0 4000 4000"><defs><style>.uuid-39a89781-93dd-4cad-a3c1-b58f18de7472{fill:#fff;}.uuid-00ac4bf3-0f58-4a82-a690-0b36aafad88d{fill:#a0a0a0;}.uuid-6a4d0cb5-888a-45e2-ae92-fe868780988b{opacity:.7;}.uuid-6a4d0cb5-888a-45e2-ae92-fe868780988b,.uuid-c5e4f296-c582-443c-b86c-93db78593969,.uuid-d97e72b7-d729-46be-9946-24acac703a4f,.uuid-76e1afbe-7739-4a18-9e68-93150015d704{fill:none;}.uuid-10715809-d0c4-4ef9-9945-58d4f9619732{fill:#303030;}.uuid-a05fe853-2f02-497b-a7d5-6d9c92e8a225{fill:#505050;}.uuid-83edafda-a44e-4fbc-9e81-53c600598397{fill:#ff6309;}.uuid-c5e4f296-c582-443c-b86c-93db78593969{opacity:.55;}.uuid-ec7b1a09-36c6-4eb7-81fe-f5f6488f43ae{fill:#161616;}.uuid-d97e72b7-d729-46be-9946-24acac703a4f{opacity:.2;}.uuid-76e1afbe-7739-4a18-9e68-93150015d704{opacity:.3;}.uuid-a8c16dfa-9120-45ec-a1fc-7215b5de9eb4{fill:#ddd7da;}.uuid-f927a09e-4bcd-4577-93d8-a93592a01ae7{fill:#fe1f00;}.uuid-77729545-140e-4f3f-bcac-162f16edfa5c{fill:#f0eff4;}</style></defs><circle class="uuid-f927a09e-4bcd-4577-93d8-a93592a01ae7" cx="2000" cy="1842.05" r="1774.77"/><g class="uuid-76e1afbe-7739-4a18-9e68-93150015d704"><path class="uuid-f927a09e-4bcd-4577-93d8-a93592a01ae7" d="m3235.55,3802.34H764.45c-42.49,9.78-65.56,20.24-65.56,31.11,0,54.7,582.53,99.05,1301.11,99.05s1301.11-44.35,1301.11-99.05c0-10.87-23.07-21.33-65.56-31.11Z"/></g><ellipse class="uuid-a05fe853-2f02-497b-a7d5-6d9c92e8a225" cx="1987.64" cy="2975.16" rx="871.31" ry="723.83"/><g class="uuid-c5e4f296-c582-443c-b86c-93db78593969"><path class="uuid-77729545-140e-4f3f-bcac-162f16edfa5c" d="m2858.92,2975.16c0,12-.37,23.88-1.1,35.7-22.36-383.21-403.41-688.14-870.2-688.14s-847.83,304.94-870.2,688.14c-.73-11.82-1.1-23.7-1.1-35.7,0-399.78,390.07-723.84,871.29-723.84s871.29,324.06,871.29,723.84Z"/></g><g class="uuid-76e1afbe-7739-4a18-9e68-93150015d704"><path class="uuid-ec7b1a09-36c6-4eb7-81fe-f5f6488f43ae" d="m1405.91,2436.34c45.68,24.55,620.1,320.75,1171.54,6.1-155.18-118.63-362.29-191.1-589.81-191.1s-427.47,69.99-581.73,185Z"/></g><path class="uuid-ec7b1a09-36c6-4eb7-81fe-f5f6488f43ae" d="m1987.64,3719.95c-492,0-892.27-334.11-892.27-744.79s400.27-744.78,892.27-744.78,892.27,334.11,892.27,744.78-400.27,744.79-892.27,744.79Zm0-1447.65c-468.88,0-850.34,315.3-850.34,702.86s381.46,702.87,850.34,702.87,850.34-315.3,850.34-702.87-381.46-702.86-850.34-702.86Z"/><path class="uuid-00ac4bf3-0f58-4a82-a690-0b36aafad88d" d="m2402.47,995.96c359.13-343.6,939.41,142.26,447.17,556.9"/><g class="uuid-c5e4f296-c582-443c-b86c-93db78593969"><path class="uuid-77729545-140e-4f3f-bcac-162f16edfa5c" d="m3033.43,1274.15c2.19-270-346.86-454.79-605.85-246.91l-25.11-31.29c278.88-266.78,691-33.55,630.96,278.2Z"/></g><path class="uuid-ec7b1a09-36c6-4eb7-81fe-f5f6488f43ae" d="m2849.65,1573.81c-5.97,0-11.9-2.54-16.05-7.45-7.46-8.85-6.33-22.08,2.53-29.53,139.45-117.47,202.2-252.33,176.67-379.73-22.25-111.09-109.34-203.15-227.27-240.25-129.14-40.63-263.5-6.27-368.57,94.26-8.36,8-21.64,7.72-29.64-.65-8-8.36-7.71-21.63.66-29.63,116.46-111.43,265.98-149.31,410.15-103.96,132.52,41.69,230.54,145.92,255.8,272,28.66,143.09-39.09,292.25-190.77,420.02-3.93,3.31-8.73,4.93-13.49,4.93Z"/><path class="uuid-00ac4bf3-0f58-4a82-a690-0b36aafad88d" d="m1580.08,987.36c-389.61-401.17-898.64,198.66-418.9,548.86"/><g class="uuid-c5e4f296-c582-443c-b86c-93db78593969"><path class="uuid-77729545-140e-4f3f-bcac-162f16edfa5c" d="m1574.51,993.83l-22.62,29.64c-262.56-242.63-568.92-50.65-590.46,205.13-19.02-287.28,328.8-527.45,613.09-234.77Z"/></g><path class="uuid-77729545-140e-4f3f-bcac-162f16edfa5c" d="m2900.2,1794.87c-4.59,506.35-403.18,697.15-892.71,692.72-489.53-4.43-884.6-202.41-880.02-708.77,4.59-506.35,405.14-913.24,894.67-908.81,489.53,4.43,882.65,418.5,878.06,924.86Z"/><path class="uuid-ec7b1a09-36c6-4eb7-81fe-f5f6488f43ae" d="m2023.8,2490.72c-5.45,0-10.86-.03-16.34-.08-260.14-2.35-476.97-60.01-627.04-166.72-172.03-122.34-258.17-305.74-256-545.12,4.58-504.47,403.03-911.87,889.83-911.87,2.66,0,5.25.01,7.91.04,490.42,4.44,885.68,420.71,881.09,927.93-2.17,239.37-91.61,421.19-265.83,540.39-148.78,101.79-360.71,155.42-613.62,155.42Zm-9.55-1617.69c-483.5,0-879.2,404.67-883.74,905.83-2.15,237.26,83.12,418.98,253.44,540.1,149.05,105.99,364.68,163.26,623.56,165.6,258.97,2.26,475.51-51.01,626.46-154.29,172.48-118.01,261.03-298.16,263.18-535.42l3.05.03-3.05-.03c4.56-503.86-387.98-917.37-875.04-921.78-2.62-.03-5.25-.04-7.86-.04Z"/><g class="uuid-76e1afbe-7739-4a18-9e68-93150015d704"><path class="uuid-ec7b1a09-36c6-4eb7-81fe-f5f6488f43ae" d="m2900.18,1794.9c-4.54,506.34-403.17,697.1-892.7,692.68-489.52-4.42-884.59-202.36-880.05-708.77.43-46.85,4.24-92.77,11.18-137.65,67.43,397.42,430.26,556.75,868.87,560.74,444.5,3.99,814.09-152.94,881.7-560.98,7.68,50.1,11.48,101.55,10.99,153.98Z"/></g><path class="uuid-ec7b1a09-36c6-4eb7-81fe-f5f6488f43ae" d="m2023.77,2508.63c-5.48,0-10.95-.03-16.48-.07-263.83-2.39-484.19-61.19-637.27-170.04-177.09-125.93-265.75-314.3-263.53-559.88,4.66-514.29,411.14-929.62,907.75-929.62,2.71,0,5.35.01,8.07.04,500.3,4.53,903.52,428.9,898.84,946.01h0c-2.22,245.57-94.29,432.31-273.63,555.01-151.77,103.85-367.2,158.56-623.76,158.56Zm-9.52-1617.69c-473.69,0-861.37,396.74-865.82,888.08-2.09,231.06,80.64,407.81,245.91,525.34,146.04,103.85,358.14,159.97,613.33,162.28,255.09,2.26,468.28-49.96,616.18-151.16,167.37-114.51,253.29-289.73,255.38-520.8,4.47-493.99-380.11-899.39-857.29-903.71-2.56-.02-5.14-.04-7.69-.04Zm885.95,903.93h.06-.06Z"/><path class="uuid-ec7b1a09-36c6-4eb7-81fe-f5f6488f43ae" d="m1161.15,1557.18c-4.29,0-8.62-1.31-12.35-4.04-151.33-110.47-223.74-260.9-198.68-412.73,22.59-136.83,120.75-251.41,250.07-291.91,133.65-41.84,277.6,3.43,394.92,124.24,8.07,8.3,7.87,21.58-.44,29.64-8.31,8.06-21.58,7.87-29.64-.44-107.46-110.65-232.58-150.92-352.31-113.44-114.36,35.81-201.2,137.37-221.23,258.73-13.16,79.71-7.01,234.04,182.04,372.05,9.35,6.83,11.39,19.94,4.57,29.29-4.1,5.62-10.48,8.6-16.95,8.6Z"/><path class="uuid-77729545-140e-4f3f-bcac-162f16edfa5c" d="m1921.2,938.18c43.91-271.3,306.18-175.11,185.88-10.6"/><path class="uuid-ec7b1a09-36c6-4eb7-81fe-f5f6488f43ae" d="m1924.2,938.67l-6.02-.97c15.26-94.24,60.53-158.07,121.11-170.74,36.13-7.56,71.27,5.81,89.5,34.07,22.22,34.45,15.21,81.23-19.25,128.36l-4.92-3.59c32.9-44.98,39.84-89.25,19.05-121.46-16.84-26.11-49.48-38.44-83.13-31.41-58.01,12.13-101.5,74.09-116.34,165.75Z"/><path class="uuid-77729545-140e-4f3f-bcac-162f16edfa5c" d="m2130.19,886.23c127.25-116.54,234.19,57.53,48.57,94.18"/><path class="uuid-ec7b1a09-36c6-4eb7-81fe-f5f6488f43ae" d="m2179.35,983.41l-1.19-5.98c55.86-11.03,92.08-37.02,96.87-69.53,3.01-20.43-7.68-40.33-27.25-50.71-32.26-17.12-75.46-5.42-115.54,31.29l-4.11-4.49c42.07-38.52,87.88-50.56,122.5-32.18,21.88,11.6,33.82,33.97,30.42,56.98-5.18,35.17-43.21,63.06-101.71,74.62Z"/><path class="uuid-ec7b1a09-36c6-4eb7-81fe-f5f6488f43ae" d="m2254.13,1101.22c-27.37,0-56.29-15.26-81.11-43.75-6.91-7.93-6.08-19.96,1.85-26.87,7.93-6.91,19.96-6.08,26.88,1.85,21.77,24.99,45.78,35.64,64.29,28.48,10.77-4.17,17.57-14.24,17.3-25.65-.48-21.21-22.65-41.21-59.3-53.52-9.98-3.35-15.34-14.15-11.99-24.12,3.35-9.97,14.12-15.33,24.12-11.99,52.52,17.63,84.39,50.81,85.26,88.75.63,27.64-15.7,51.99-41.63,62.03-8.27,3.21-16.9,4.78-25.67,4.78Z"/><path class="uuid-ec7b1a09-36c6-4eb7-81fe-f5f6488f43ae" d="m1921.22,959.14c-1.11,0-2.24-.09-3.38-.27-11.43-1.85-19.2-12.61-17.35-24.04,16.49-101.85,67-171.16,135.13-185.41,43.44-9.09,85.94,7.35,108.22,41.89,12.52,19.41,35.65,72.74-19.85,148.64-6.84,9.34-19.95,11.39-29.3,4.55-9.35-6.83-11.39-19.95-4.56-29.29,28.28-38.66,35-75.54,18.46-101.18-12.79-19.83-38.08-29.1-64.4-23.58-50.46,10.55-88.71,67.03-102.32,151.08-1.67,10.29-10.57,17.61-20.67,17.61Z"/><path class="uuid-ec7b1a09-36c6-4eb7-81fe-f5f6488f43ae" d="m2178.73,1001.38c-9.81,0-18.57-6.92-20.54-16.9-2.24-11.36,5.15-22.38,16.51-24.63,56.62-11.18,79.8-35.52,82.61-54.57,1.92-13.03-4.95-25.39-17.92-32.27-19.51-10.34-54.72-8.25-95.03,28.67-8.54,7.82-21.8,7.24-29.62-1.3-7.82-8.54-7.24-21.79,1.3-29.61,47.91-43.88,101.37-56.88,143.02-34.79,28.66,15.2,44.26,44.81,39.75,75.42-3.04,20.65-20.44,70.71-115.97,89.58-1.37.27-2.74.4-4.09.4Z"/><path class="uuid-ec7b1a09-36c6-4eb7-81fe-f5f6488f43ae" d="m2254.12,1103.15c-27.93,0-57.35-15.5-82.55-44.42-7.6-8.73-6.7-21.97,2.04-29.57,8.73-7.6,21.97-6.69,29.58,2.04,21.22,24.35,44.45,34.81,62.15,27.95,10.01-3.88,16.33-13.23,16.08-23.82-.36-15.73-15.79-37.58-57.99-51.74-10.97-3.68-16.88-15.57-13.2-26.54,3.68-10.97,15.55-16.88,26.55-13.2,53.31,17.9,85.67,51.74,86.56,90.53.66,28.46-16.17,53.52-42.85,63.86-8.51,3.3-17.37,4.91-26.37,4.91Z"/><path class="uuid-a05fe853-2f02-497b-a7d5-6d9c92e8a225" d="m1853.43,1508.87c-89.94,72.4-142.35,182.6-166.49,321.29-6.76,38.86-37.27,69.15-76,76.62-194.97,37.56-343.29-174.25-245.6-409.01,128.55-303.81,449.66-267.17,516.43-95.92,14.77,37.88,3.34,81.52-28.33,107.02Z"/><path class="uuid-a05fe853-2f02-497b-a7d5-6d9c92e8a225" d="m2152.13,1508.87c89.94,72.4,142.35,182.6,166.49,321.29,6.76,38.86,37.27,69.15,76,76.62,194.97,37.56,343.29-174.25,245.6-409.01-128.55-303.81-449.66-267.17-516.43-95.92-14.77,37.88-3.34,81.52,28.33,107.02Z"/><path class="uuid-ec7b1a09-36c6-4eb7-81fe-f5f6488f43ae" d="m2119.05,1689.85c-.47,52.36-53.14,122.87-117.32,122.29-64.18-.58-115.56-72.03-115.09-124.39.47-52.36,52.63-65.9,116.81-65.32,64.18.58,116.08,15.06,115.61,67.43Z"/><path class="uuid-ec7b1a09-36c6-4eb7-81fe-f5f6488f43ae" d="m1893.14,1948.48c-18.17,0-36.52-3.75-53.83-11.64-41.25-18.8-68.57-57.46-76.91-108.85-1.85-11.43,5.91-22.19,17.34-24.05,11.37-1.86,22.19,5.9,24.05,17.33,6.02,37.12,24.82,64.62,52.92,77.42,40.85,18.63,90.29,3.45,112.57-34.58,8.36-14.17,12.58-30.8,12.58-49.49,0-6.97-.63-14.42-1.86-22.16-1.82-11.43,5.96-22.18,17.4-24.01,11.33-1.8,22.18,5.96,24.01,17.39,1.59,9.92,2.39,19.6,2.39,28.77,0,26.29-6.19,50.08-18.38,70.74-23.49,40.1-67.29,63.12-112.29,63.12Z"/><path class="uuid-ec7b1a09-36c6-4eb7-81fe-f5f6488f43ae" d="m2170.94,1926.87s-2.91,101.53-41.65,135.34c-64.64-94.52-188.31-94.52-252.95,0l-33.77-82.64v-52.7l5.46-11.22c48.82,25.9,110.97,6.27,139.35-50.06,10.43.08,20.86.08,31.01.08,28.88,57.24,92.67,76.54,141.77,48.58,6.39,7.42,10.78,12.62,10.78,12.62Z"/><path class="uuid-83edafda-a44e-4fbc-9e81-53c600598397" d="m2122.76,2051.41c-63.79,71.22-176.11,71.22-239.89,0,20.43-45.82,66.48-77.82,119.91-77.82s99.55,31.99,119.98,77.82Z"/><path class="uuid-ec7b1a09-36c6-4eb7-81fe-f5f6488f43ae" d="m2112.06,1948.66c-44.73,0-88.07-22.9-111.76-63.29-12.2-20.5-18.42-44.34-18.42-70.75,0-9.19.81-18.88,2.4-28.79,1.83-11.43,12.58-19.21,24.02-17.37,11.43,1.84,19.21,12.59,17.37,24.02-1.24,7.71-1.86,15.16-1.86,22.14,0,18.76,4.23,35.39,12.59,49.43,22.59,38.5,73.92,53.56,114.53,33.68,19.1-9.35,43.44-30.2,50.97-76.47,1.86-11.43,12.63-19.15,24.05-17.33,11.43,1.86,19.19,12.63,17.33,24.05-8.11,49.9-34.36,88.04-73.92,107.39-18.37,9-37.97,13.28-57.31,13.28Z"/><path class="uuid-ec7b1a09-36c6-4eb7-81fe-f5f6488f43ae" d="m2002.81,2125.78c-51.78,0-101.19-22.01-135.57-60.39-35-38.82-53.53-92.44-53.53-155,0-11.58,9.39-20.96,20.97-20.96s20.97,9.38,20.97,20.96c0,52.03,14.8,95.94,42.79,126.98,26.48,29.56,64.5,46.49,104.37,46.49s77.89-16.93,104.33-46.44c28.04-31.09,42.83-75,42.83-127.03,0-11.58,9.39-20.96,20.97-20.96s20.97,9.38,20.97,20.96c0,62.57-18.53,116.19-53.57,155.05-34.33,38.33-83.74,60.34-135.52,60.34Z"/><ellipse class="uuid-ec7b1a09-36c6-4eb7-81fe-f5f6488f43ae" cx="2352.96" cy="1619.84" rx="98.45" ry="137.83"/><ellipse class="uuid-77729545-140e-4f3f-bcac-162f16edfa5c" cx="2376.75" cy="1593.71" rx="23.78" ry="34.28"/><ellipse class="uuid-ec7b1a09-36c6-4eb7-81fe-f5f6488f43ae" cx="1647.04" cy="1619.84" rx="98.45" ry="137.83"/><ellipse class="uuid-77729545-140e-4f3f-bcac-162f16edfa5c" cx="1623.25" cy="1593.71" rx="23.78" ry="34.28"/><path class="uuid-a05fe853-2f02-497b-a7d5-6d9c92e8a225" d="m1999.92,522.68c-496.16,0-914.93,337.55-1038.62,795l139.09,34.15c108.27-394.94,470.52-686.01,899.52-686.01s792.34,291.95,900.07,687.85l140.05-30.33c-121.7-460.32-541.91-800.66-1040.12-800.66Z"/><g class="uuid-c5e4f296-c582-443c-b86c-93db78593969"><path class="uuid-77729545-140e-4f3f-bcac-162f16edfa5c" d="m1999.92,522.68c-496.16,0-914.93,337.55-1038.62,795l14.25,3.48c139.09-432.91,545.73-747.01,1024.37-747.01s888.55,316.69,1026,752.26l14.11-3.07c-121.7-460.32-541.91-800.66-1040.12-800.66Z"/></g><path class="uuid-ec7b1a09-36c6-4eb7-81fe-f5f6488f43ae" d="m2899.97,1374.64c-9.27,0-17.68-6.17-20.21-15.46-107.73-395.89-469.53-672.39-879.84-672.39s-771.06,275.76-879.3,670.59c-3,10.96-14.21,17.53-25.22,14.81l-139.09-34.15c-5.48-1.35-10.19-4.84-13.06-9.71-2.87-4.86-3.65-10.67-2.18-16.12,129.03-477.2,564.44-810.49,1058.86-810.49s933.32,335.66,1060.39,816.26c1.46,5.53.6,11.42-2.39,16.3-2.99,4.88-7.85,8.33-13.44,9.54l-140.04,30.34c-1.49.32-2.98.48-4.46.48Zm-900.05-729.77c422.52,0,795.88,280.33,914.87,684.16l99.15-21.48c-129.25-450.9-543.09-763.91-1014.02-763.91s-881.65,310.96-1012.56,758.85l98.43,24.17c119.67-402.46,492.65-681.8,914.13-681.8Z"/><path class="uuid-10715809-d0c4-4ef9-9945-58d4f9619732" d="m2970.54,1923.63c-48.61,11.58-97.39-18.37-108.92-66.97l-120.47-504.92-11.34-47.62c-11.59-48.59,18.44-97.37,67.05-108.95,7-1.66,14.01-2.46,20.9-2.47,39.6-.06,75.59,26.08,86.98,65.35l.06.24c.31,1.28.67,2.56.98,3.84l131.75,552.6c11.59,48.59-18.38,97.31-66.98,108.89Z"/><g class="uuid-76e1afbe-7739-4a18-9e68-93150015d704"><path class="uuid-ec7b1a09-36c6-4eb7-81fe-f5f6488f43ae" d="m2999.27,1654.21l38.29,160.55c11.58,48.56-18.43,97.34-67,108.92-48.57,11.58-97.37-18.42-108.95-66.98l-38.29-160.55c11.58,48.56,60.38,78.56,108.95,66.98,48.57-11.58,78.58-60.36,67-108.92Z"/></g><g class="uuid-c5e4f296-c582-443c-b86c-93db78593969"><path class="uuid-77729545-140e-4f3f-bcac-162f16edfa5c" d="m2917.85,1313.23c-5.76-24.3-20.9-43.95-40.6-56.04-19.7-12.21-44.08-16.75-68.32-10.99-47.45,11.34-77.23,58.04-67.78,105.54l-11.34-47.62c-11.59-48.59,18.44-97.37,67.05-108.95,7-1.66,14.01-2.46,20.9-2.47,39.6-.06,75.59,26.08,86.98,65.35l.06.24,13.06,54.93Z"/></g><path class="uuid-ec7b1a09-36c6-4eb7-81fe-f5f6488f43ae" d="m2949.56,1947.09c-50.38,0-96.19-34.47-108.37-85.56l-131.76-552.56c-6.9-28.94-2.12-58.83,13.47-84.18,15.59-25.34,40.12-43.1,69.07-50,28.95-6.89,58.85-2.12,84.2,13.47,25.35,15.58,43.11,40.11,50.01,69.05l131.77,552.56c6.9,28.94,2.12,58.83-13.47,84.17-15.59,25.34-40.12,43.1-69.07,50h0c-8.64,2.06-17.31,3.05-25.83,3.05Zm20.97-23.44h.06-.06Zm-152.61-710.01c-5.41,0-10.85.63-16.25,1.92-18.05,4.3-33.35,15.38-43.07,31.18-9.72,15.8-12.7,34.45-8.4,52.49l131.76,552.56c8.89,37.26,46.42,60.34,83.7,51.46h0c18.06-4.3,33.35-15.38,43.08-31.18,9.72-15.8,12.7-34.45,8.4-52.49l-131.77-552.56c-4.3-18.05-15.38-33.34-31.18-43.06-11.09-6.82-23.57-10.32-36.27-10.32Z"/><path class="uuid-a05fe853-2f02-497b-a7d5-6d9c92e8a225" d="m3301.11,1531.4c.2,136.02-92.72,259.45-230.86,292.36l-28.93,6.86-127.09-532.99-12.26-51.39,28.93-6.86c154.89-36.96,310.33,53.27,356.68,203.29q.06.06.06.12c1.9,6.27,3.67,12.66,5.21,19.12,5.58,23.26,8.23,46.53,8.27,69.49Z"/><g class="uuid-76e1afbe-7739-4a18-9e68-93150015d704"><path class="uuid-ec7b1a09-36c6-4eb7-81fe-f5f6488f43ae" d="m3292.84,1461.91c19.24,80.67,3.92,161.54-36.35,227.01-40.25,65.55-105.47,115.6-186.24,134.85l-28.91,6.89-35.95-150.76,28.91-6.89c80.76-19.25,145.97-69.39,186.24-134.85,27.26-44.32,43.08-95.69,44.47-149.24,12.16,22.51,21.62,46.91,27.84,72.99Z"/></g><g class="uuid-c5e4f296-c582-443c-b86c-93db78593969"><path class="uuid-77729545-140e-4f3f-bcac-162f16edfa5c" d="m3293.72,1477.99c-52.18-140.21-201.94-222.71-351.17-187.1l-28.32,6.74-12.26-51.39,28.93-6.86c154.89-36.96,310.33,53.27,356.68,203.29q.06.06.06.12c2.76,11.75,4.73,23.45,6.08,35.2Z"/></g><path class="uuid-ec7b1a09-36c6-4eb7-81fe-f5f6488f43ae" d="m3041.32,1851.63c-9.49,0-18.08-6.48-20.38-16.11l-139.37-584.42c-1.29-5.41-.37-11.11,2.54-15.84,2.91-4.74,7.58-8.12,12.99-9.41l28.89-6.89c172.41-41.09,346.13,65.71,387.23,238.07,41.1,172.37-65.73,346.04-238.14,387.13h0l-28.89,6.89c-1.64.39-3.27.58-4.88.58Zm-114.1-589.86l129.64,543.64,8.51-2.03c72.62-17.31,134.15-61.85,173.27-125.44,39.11-63.58,51.11-138.58,33.8-211.19-35.74-149.88-186.79-242.76-336.71-207.02l-8.51,2.03Z"/><path class="uuid-10715809-d0c4-4ef9-9945-58d4f9619732" d="m1029.46,1923.63c48.61,11.58,97.39-18.37,108.92-66.97l120.47-504.92,11.34-47.62c11.59-48.59-18.44-97.37-67.05-108.95-7-1.66-14.01-2.46-20.9-2.47-39.6-.06-75.59,26.08-86.98,65.35l-.06.24c-.31,1.28-.67,2.56-.98,3.84l-131.75,552.6c-11.59,48.59,18.38,97.31,66.98,108.89Z"/><g class="uuid-76e1afbe-7739-4a18-9e68-93150015d704"><path class="uuid-ec7b1a09-36c6-4eb7-81fe-f5f6488f43ae" d="m1000.73,1654.21l-38.29,160.55c-11.58,48.56,18.43,97.34,67,108.92,48.57,11.58,97.37-18.42,108.95-66.98l38.29-160.55c-11.58,48.56-60.38,78.56-108.95,66.98-48.57-11.58-78.58-60.36-67-108.92Z"/></g><g class="uuid-c5e4f296-c582-443c-b86c-93db78593969"><path class="uuid-77729545-140e-4f3f-bcac-162f16edfa5c" d="m1082.15,1313.23c5.76-24.3,20.9-43.95,40.6-56.04,19.7-12.21,44.08-16.75,68.32-10.99,47.45,11.34,77.23,58.04,67.78,105.54l11.34-47.62c11.59-48.59-18.44-97.37-67.05-108.95-7-1.66-14.01-2.46-20.9-2.47-39.6-.06-75.59,26.08-86.98,65.35l-.06.24-13.06,54.93Z"/></g><path class="uuid-ec7b1a09-36c6-4eb7-81fe-f5f6488f43ae" d="m1050.44,1947.09c-8.53,0-17.19-.99-25.83-3.05h0c-28.95-6.9-53.47-24.66-69.07-50-15.59-25.34-20.37-55.24-13.47-84.17l131.77-552.56c6.9-28.94,24.66-53.46,50.01-69.04,25.34-15.59,55.26-20.36,84.19-13.47,28.95,6.9,53.48,24.66,69.07,50,15.59,25.34,20.37,55.24,13.47,84.18l-131.76,552.56c-12.19,51.09-57.99,85.56-108.37,85.56Zm-16.12-43.83c37.24,8.86,74.82-14.21,83.7-51.46l131.76-552.56c4.3-18.05,1.32-36.69-8.4-52.49-9.72-15.8-25.02-26.88-43.08-31.18-18.03-4.31-36.69-1.32-52.5,8.4-15.81,9.72-26.88,25.01-31.18,43.06l-131.77,552.57c-4.3,18.05-1.32,36.69,8.4,52.49,9.72,15.8,25.02,26.88,43.08,31.18h0Z"/><path class="uuid-a05fe853-2f02-497b-a7d5-6d9c92e8a225" d="m698.89,1531.4c-.2,136.02,92.72,259.45,230.86,292.36l28.93,6.86,127.09-532.99,12.26-51.39-28.93-6.86c-154.89-36.96-310.33,53.27-356.68,203.29q-.06.06-.06.12c-1.9,6.27-3.67,12.66-5.21,19.12-5.58,23.26-8.23,46.53-8.27,69.49Z"/><g class="uuid-76e1afbe-7739-4a18-9e68-93150015d704"><path class="uuid-ec7b1a09-36c6-4eb7-81fe-f5f6488f43ae" d="m707.16,1461.91c-19.24,80.67-3.92,161.54,36.35,227.01,40.25,65.55,105.47,115.6,186.24,134.85l28.91,6.89,35.95-150.76-28.91-6.89c-80.76-19.25-145.97-69.39-186.24-134.85-27.26-44.32-43.08-95.69-44.47-149.24-12.16,22.51-21.62,46.91-27.84,72.99Z"/></g><g class="uuid-c5e4f296-c582-443c-b86c-93db78593969"><path class="uuid-77729545-140e-4f3f-bcac-162f16edfa5c" d="m706.28,1477.99c52.18-140.21,201.94-222.71,351.17-187.1l28.32,6.74,12.26-51.39-28.93-6.86c-154.89-36.96-310.33,53.27-356.68,203.29q-.06.06-.06.12c-2.76,11.75-4.73,23.45-6.08,35.2Z"/></g><path class="uuid-ec7b1a09-36c6-4eb7-81fe-f5f6488f43ae" d="m958.68,1851.63c-1.61,0-3.25-.19-4.88-.58l-28.89-6.89c-83.52-19.91-154.29-71.14-199.26-144.26-44.97-73.12-58.78-159.37-38.87-242.87,41.11-172.37,214.81-279.17,387.23-238.08l28.89,6.89c5.41,1.29,10.08,4.67,12.99,9.41s3.83,10.43,2.54,15.84l-139.37,584.42c-2.29,9.62-10.9,16.1-20.38,16.11Zm40.76-599.54c-126.42,0-241.32,86.48-271.89,214.67-35.74,149.89,57.15,300.9,207.07,336.63h0l8.5,2.03,129.64-543.64-8.5-2.03c-21.7-5.17-43.44-7.65-64.83-7.65Z"/><path class="uuid-a8c16dfa-9120-45ec-a1fc-7215b5de9eb4" d="m910.67,3571.76h2178.65v56.6c0,96.02-77.96,173.98-173.98,173.98h-1830.7c-96.02,0-173.98-77.96-173.98-173.98v-56.6h0Z"/><g class="uuid-d97e72b7-d729-46be-9946-24acac703a4f"><path class="uuid-ec7b1a09-36c6-4eb7-81fe-f5f6488f43ae" d="m3089.33,3571.76v1.02c0,126.77-102.82,229.56-229.62,229.56h-1719.41c-126.8,0-229.62-102.79-229.62-229.56v-1.02h21.13c36.42,78.67,116.07,133.23,208.49,133.23h1719.41c92.42,0,172.06-54.55,208.49-133.23h21.13Z"/></g><path class="uuid-ec7b1a09-36c6-4eb7-81fe-f5f6488f43ae" d="m2859.73,3823.3h-1719.46c-138.16,0-250.56-112.37-250.56-250.5v-1.04c0-11.58,9.39-20.96,20.97-20.96h2178.65c11.58,0,20.97,9.38,20.97,20.96v1.04c0,138.12-112.41,250.5-250.56,250.5Zm-1927.15-230.58c10.07,105.7,99.36,188.66,207.69,188.66h1719.46c108.32,0,197.62-82.96,207.69-188.66H932.58Z"/><path class="uuid-a8c16dfa-9120-45ec-a1fc-7215b5de9eb4" d="m3025.45,2711.93l-107.98,989.65c-6.25,57.34-54.7,100.75-112.4,100.75h-1610.14c-22.36,0-43.36-6.52-60.96-17.87-8.09-5.1-15.43-11.28-21.88-18.28-16.11-17.26-26.84-39.61-29.56-64.61l-107.98-989.65c-7.27-66.85,45.12-125.28,112.4-125.28h1826.1c27.73,0,53.01,9.92,72.51,26.36,27.86,23.3,44.17,59.65,39.89,98.92Z"/><g class="uuid-6a4d0cb5-888a-45e2-ae92-fe868780988b"><path class="uuid-39a89781-93dd-4cad-a3c1-b58f18de7472" d="m3025.45,2711.93l-2.17,20.11c-5.57-24.25-19.1-45.72-37.72-61.28-19.5-16.44-44.78-26.36-72.51-26.36h-1826.1c-54.23,0-98.81,37.98-110.22,87.71l-2.17-20.18c-7.27-66.85,45.12-125.28,112.4-125.28h1826.1c27.73,0,53.01,9.92,72.51,26.36,27.86,23.3,44.17,59.65,39.89,98.92Z"/></g><path class="uuid-ec7b1a09-36c6-4eb7-81fe-f5f6488f43ae" d="m2805.09,3823.29h-1610.17c-68.51,0-125.78-51.35-133.21-119.44l-107.99-989.66c-4.12-37.78,8.07-75.68,33.45-103.97,25.38-28.29,61.75-44.52,99.76-44.52h1826.16c38.01,0,74.38,16.23,99.76,44.52,25.38,28.29,37.57,66.19,33.45,103.97l-107.99,989.66c-7.43,68.09-64.7,119.44-133.21,119.44Zm-1718.17-1215.67c-26.12,0-51.1,11.15-68.54,30.59-17.44,19.44-25.81,45.48-22.99,71.44l107.99,989.66c5.11,46.78,44.46,82.06,91.53,82.06h1610.17c47.07,0,86.42-35.28,91.53-82.06l107.99-989.66c2.83-25.96-5.55-52-22.99-71.44-17.44-19.44-42.43-30.59-68.54-30.59h-1826.16Z"/><g class="uuid-d97e72b7-d729-46be-9946-24acac703a4f"><path class="uuid-a05fe853-2f02-497b-a7d5-6d9c92e8a225" d="m2957.9,2704.6l-107.98,989.65c-2.51,22.9-21.81,40.15-44.85,40.15h-1173.74c-20.33,0-23.75-29-4-33.8,558.6-135.7,990.59-477.03,1308.84-1002.98,6.34-10.47,22.97-5.53,21.76,6.64-.01.11-.02.22-.03.33Z"/></g><ellipse class="uuid-ec7b1a09-36c6-4eb7-81fe-f5f6488f43ae" cx="2000" cy="3216.78" rx="112.34" ry="90.02"/><g class="uuid-6a4d0cb5-888a-45e2-ae92-fe868780988b"><path class="uuid-39a89781-93dd-4cad-a3c1-b58f18de7472" d="m2122.52,3224.73c0,49.66-50.29,90.02-112.33,90.02-32.96,0-62.59-11.41-83.18-29.49,19.64,13.45,45.19,21.54,72.98,21.54,62.04,0,112.33-40.29,112.33-90.02,0-23.24-11.01-44.43-29.02-60.4,23.99,16.51,39.21,40.97,39.21,68.35Z"/></g><path class="uuid-ec7b1a09-36c6-4eb7-81fe-f5f6488f43ae" d="m638.86,3795.35c56.72-10.75,113.43-13.61,170.14-14.78,56.72-1.5,113.43-.71,170.14.11,56.71.64,113.43.8,170.14.7h1871.56l85.07-.02c28.36.02,56.72-.95,85.07-1.39,56.72-.25,113.43.38,170.14,15.38,3.86,1.02,6.16,4.98,5.14,8.83-.69,2.6-2.72,4.49-5.14,5.14-56.72,15-113.43,15.63-170.14,15.38-28.36-.44-56.72-1.4-85.07-1.39l-85.07-.02h-1871.56c-56.71-.1-113.43.06-170.14.7-56.72.82-113.43,1.61-170.14.11-56.72-1.17-113.43-4.03-170.14-14.78-3.86-.73-6.39-4.45-5.66-8.31.56-2.95,2.88-5.13,5.66-5.66Z"/></svg>
