<?xml version="1.0" encoding="UTF-8"?>
<svg id="uuid-11c7dfaa-5f87-4d90-ba77-403d60cb9206" xmlns="http://www.w3.org/2000/svg" viewBox="0 0 4000 4415">
  <defs><style>.uuid-1169741d-5e2c-41f3-ab4c-8484949dfaf1{fill:#fff;}.uuid-60f5a953-b251-4880-a458-7693c5f4cefd{fill:#a0a0a0;}.uuid-e6e62de6-6926-4831-bb96-953b99865da6{opacity:.7;}.uuid-e6e62de6-6926-4831-bb96-953b99865da6,.uuid-e4cdb14a-2c91-4915-a5fe-1d97b77155d6,.uuid-179ffe92-f7d9-4adb-8d19-8e8314093daf,.uuid-03e4ed72-a85a-4724-98cb-1cbff72d1705{fill:none;}.uuid-4d52b873-5d0b-4c31-8484-e041a012d3a7{fill:#303030;}.uuid-f4ece198-42b0-4159-8dd3-fc1072cddb42{fill:#505050;}.uuid-6af81e32-5bb0-4e45-b60e-160dd957de9f{fill:#ff6309;}.uuid-e4cdb14a-2c91-4915-a5fe-1d97b77155d6{opacity:.55;}.uuid-fc11ab91-c0e1-4f98-9b21-f62554462d4c{fill:#161616;}.uuid-179ffe92-f7d9-4adb-8d19-8e8314093daf{opacity:.2;}.uuid-03e4ed72-a85a-4724-98cb-1cbff72d1705{opacity:.3;}.uuid-2ae20097-9210-4d2e-9e4a-15a6f40800ea{fill:#ddd7da;}.uuid-2a8c38ed-17cf-4f54-b24c-092cb30b0ed4{fill:#fe1f00;}.uuid-54ce95f1-19e3-49bb-a20b-cb1ba7cce3c0{fill:#f0eff4;}</style></defs>
  <circle class="uuid-6af81e32-5bb0-4e45-b60e-160dd957de9f" cx="2000" cy="2000" r="1975"/>
  <circle class="uuid-2a8c38ed-17cf-4f54-b24c-092cb30b0ed4" cx="2000" cy="2000" r="1925"/>
  <path class="uuid-f4ece198-42b0-4159-8dd3-fc1072cddb42" d="m1986.44,2540.21c-536.94,0-972.21,361.78-972.21,808.05,0,166.89,60.88,321.95,165.17,450.71,249.92,114.31,527.82,178.03,820.6,178.03,276.07,0,538.91-56.65,777.53-158.95,114-132.38,181.11-294.57,181.11-469.79,0-446.28-435.27-808.05-972.21-808.05Z"/>
  <g class="uuid-e4cdb14a-2c91-4915-a5fe-1d97b77155d6"><path class="uuid-54ce95f1-19e3-49bb-a20b-cb1ba7cce3c0" d="m2958.62,3348.26c0,13.4-.41,26.66-1.22,39.85-24.95-427.8-450.13-768.22-970.97-768.22s-946.02,340.42-970.97,768.22c-.82-13.19-1.22-26.45-1.22-39.85,0-446.3,435.24-808.07,972.19-808.07s972.19,361.77,972.19,808.07Z"/></g>
  <g class="uuid-03e4ed72-a85a-4724-98cb-1cbff72d1705"><path class="uuid-fc11ab91-c0e1-4f98-9b21-f62554462d4c" d="m1337.34,2746.74c50.97,27.41,691.91,358.07,1307.21,6.81-173.15-132.43-404.25-213.34-658.11-213.34s-476.98,78.14-649.1,206.53Z"/></g><path class="uuid-fc11ab91-c0e1-4f98-9b21-f62554462d4c" d="m1986.44,2516.81c-548.98,0-995.61,372.99-995.61,831.45,0,156.96,52.36,303.89,143.24,429.28,31.45,15.37,63.36,29.92,95.72,43.64-120.56-131.59-192.17-295.46-192.17-472.91,0-432.66,425.63-784.65,948.81-784.65s948.81,351.99,948.81,784.65c0,185.68-78.39,356.5-209.24,491.02,33.08-13.08,65.72-27.03,97.89-41.81,100.04-129.62,158.14-283.85,158.14-449.2,0-458.46-446.63-831.45-995.61-831.45Z"/><path class="uuid-60f5a953-b251-4880-a458-7693c5f4cefd" d="m2449.3,1138.75c400.72-383.58,1048.2,158.81,498.96,621.7"/>
  <g class="uuid-e4cdb14a-2c91-4915-a5fe-1d97b77155d6"><path class="uuid-54ce95f1-19e3-49bb-a20b-cb1ba7cce3c0" d="m3153.33,1449.31c2.44-301.42-387.03-507.71-676.01-275.64l-28.02-34.93c311.18-297.82,771.02-37.45,704.03,310.57Z"/></g><path class="uuid-fc11ab91-c0e1-4f98-9b21-f62554462d4c" d="m2948.27,1783.84c-6.67,0-13.28-2.83-17.9-8.32-8.33-9.89-7.07-24.65,2.82-32.97,155.6-131.14,225.61-281.69,197.13-423.92-24.83-124.02-122-226.79-253.6-268.21-144.1-45.36-294.01-7-411.25,105.22-9.33,8.93-24.14,8.62-33.07-.73-8.93-9.33-8.61-24.15.73-33.08,129.95-124.4,296.78-166.69,457.64-116.05,147.87,46.54,257.24,162.9,285.42,303.65,31.98,159.74-43.62,326.26-212.86,468.9-4.39,3.7-9.74,5.51-15.06,5.51Z"/><path class="uuid-60f5a953-b251-4880-a458-7693c5f4cefd" d="m1531.67,1129.15c-434.72-447.85-1002.71,221.77-467.42,612.73"/>
  <g class="uuid-e4cdb14a-2c91-4915-a5fe-1d97b77155d6"><path class="uuid-54ce95f1-19e3-49bb-a20b-cb1ba7cce3c0" d="m1525.47,1136.38l-25.24,33.08c-292.97-270.87-634.81-56.54-658.84,229-21.22-320.7,366.88-588.83,684.08-262.09Z"/></g><path class="uuid-54ce95f1-19e3-49bb-a20b-cb1ba7cce3c0" d="m3004.67,2030.63c-5.12,565.28-449.88,778.28-996.09,773.33-546.22-4.95-987.05-225.97-981.93-791.24,5.12-565.28,452.06-1019.51,998.28-1014.57,546.22,4.95,984.86,467.2,979.75,1032.48Z"/><path class="uuid-fc11ab91-c0e1-4f98-9b21-f62554462d4c" d="m2026.78,2807.45c-6.08,0-12.12-.03-18.23-.09-290.26-2.63-532.2-66.99-699.65-186.13-191.95-136.58-288.06-341.32-285.65-608.55,5.1-563.17,449.71-1017.97,992.88-1017.97,2.97,0,5.85.01,8.82.04,547.22,4.96,988.24,469.66,983.12,1035.91-2.42,267.23-102.21,470.2-296.61,603.27-166.01,113.64-402.48,173.51-684.68,173.51Zm-10.66-1805.94c-539.5,0-981.02,451.76-986.08,1011.24-2.39,264.87,92.75,467.73,282.79,602.94,166.31,118.32,406.91,182.25,695.77,184.87,288.96,2.53,530.58-56.95,699.01-172.24,192.46-131.75,291.26-332.85,293.66-597.73l3.4.03-3.4-.03c5.09-562.5-432.92-1024.12-976.38-1029.04-2.92-.03-5.85-.04-8.76-.04Z"/>
  <g class="uuid-03e4ed72-a85a-4724-98cb-1cbff72d1705"><path class="uuid-fc11ab91-c0e1-4f98-9b21-f62554462d4c" d="m3004.65,2030.65c-5.07,565.26-449.86,778.22-996.08,773.28-546.21-4.93-987.03-225.91-981.96-791.24.48-52.3,4.73-103.57,12.47-153.67,75.24,443.67,480.08,621.53,969.49,625.99,495.98,4.46,908.36-170.74,983.81-626.26,8.57,55.93,12.81,113.37,12.26,171.9Z"/></g><path class="uuid-fc11ab91-c0e1-4f98-9b21-f62554462d4c" d="m2026.75,2827.44c-6.12,0-12.22-.03-18.39-.08-294.38-2.67-540.26-68.31-711.07-189.83-197.6-140.59-296.53-350.88-294.05-625.03,5.2-574.14,458.75-1037.79,1012.87-1037.79,3.02,0,5.97.01,9,.04,558.24,5.05,1008.15,478.81,1002.93,1056.09h0c-2.48,274.15-105.21,482.61-305.31,619.6-169.35,115.93-409.73,177.01-696,177.01Zm-10.63-1805.93c-528.55,0-961.12,442.91-966.09,991.42-2.33,257.95,89.98,455.27,274.39,586.47,162.96,115.94,399.61,178.59,684.36,181.17,284.63,2.52,522.5-55.77,687.54-168.75,186.75-127.84,282.62-323.45,284.96-581.4,4.98-551.47-424.13-1004.05-956.57-1008.87-2.86-.03-5.73-.04-8.59-.04Zm988.55,1009.12h.07-.07Z"/><path class="uuid-fc11ab91-c0e1-4f98-9b21-f62554462d4c" d="m1064.24,1765.28c-4.78,0-9.61-1.47-13.78-4.51-168.85-123.33-249.65-291.26-221.69-460.75,25.21-152.75,134.74-280.67,279.03-325.88,149.13-46.71,309.74,3.83,440.65,138.7,9,9.27,8.79,24.09-.49,33.09-9.27,9-24.08,8.78-33.07-.49-119.9-123.52-259.52-168.48-393.1-126.64-127.6,39.98-224.5,153.36-246.85,288.84-14.69,88.99-7.82,261.28,203.12,415.34,10.43,7.62,12.71,22.26,5.1,32.69-4.58,6.27-11.7,9.6-18.92,9.6Z"/><path class="uuid-54ce95f1-19e3-49bb-a20b-cb1ba7cce3c0" d="m1912.3,1074.24c49-302.86,341.64-195.49,207.4-11.83"/><path class="uuid-fc11ab91-c0e1-4f98-9b21-f62554462d4c" d="m1915.65,1074.79l-6.72-1.09c17.03-105.21,67.54-176.46,135.13-190.61,40.31-8.44,79.52,6.49,99.86,38.03,24.8,38.45,16.97,90.68-21.48,143.29l-5.49-4.01c36.71-50.21,44.45-99.64,21.26-135.6-18.79-29.15-55.21-42.91-92.75-35.06-64.73,13.54-113.26,82.72-129.81,185.04Z"/><path class="uuid-54ce95f1-19e3-49bb-a20b-cb1ba7cce3c0" d="m2145.49,1016.26c141.98-130.1,261.31,64.22,54.19,105.14"/><path class="uuid-fc11ab91-c0e1-4f98-9b21-f62554462d4c" d="m2200.34,1124.74l-1.32-6.67c62.33-12.31,102.74-41.33,108.09-77.62,3.36-22.81-8.57-45.02-30.41-56.61-36-19.11-84.2-6.05-128.92,34.93l-4.59-5.01c46.94-43.01,98.05-56.44,136.69-35.92,24.41,12.95,37.73,37.92,33.94,63.61-5.78,39.26-48.21,70.4-113.49,83.3Z"/><path class="uuid-fc11ab91-c0e1-4f98-9b21-f62554462d4c" d="m2283.79,1256.26c-30.54,0-62.81-17.04-90.5-48.84-7.71-8.85-6.79-22.28,2.06-30,8.84-7.71,22.27-6.79,29.99,2.06,24.3,27.9,51.08,39.79,71.74,31.8,12.02-4.66,19.6-15.9,19.31-28.63-.54-23.68-25.27-46.01-66.16-59.74-11.13-3.74-17.12-15.79-13.38-26.92,3.74-11.13,15.76-17.11,26.91-13.39,58.6,19.68,94.16,56.72,95.13,99.08.7,30.86-17.52,58.04-46.45,69.25-9.23,3.58-18.85,5.33-28.65,5.33Z"/><path class="uuid-fc11ab91-c0e1-4f98-9b21-f62554462d4c" d="m1912.32,1097.65c-1.24,0-2.5-.1-3.77-.3-12.76-2.07-21.42-14.08-19.36-26.84,18.4-113.7,74.76-191.08,150.78-206.99,48.47-10.14,95.89,8.21,120.76,46.77,13.97,21.67,39.78,81.2-22.15,165.93-7.63,10.43-22.26,12.72-32.69,5.08-10.43-7.63-12.7-22.27-5.08-32.7,31.55-43.16,39.06-84.33,20.6-112.95-14.27-22.14-42.49-32.48-71.86-26.33-56.31,11.78-98.99,74.83-114.16,168.66-1.86,11.49-11.79,19.66-23.07,19.66Z"/><path class="uuid-fc11ab91-c0e1-4f98-9b21-f62554462d4c" d="m2199.65,1144.8c-10.94,0-20.72-7.72-22.92-18.87-2.5-12.68,5.74-24.98,18.42-27.49,63.18-12.48,89.04-39.65,92.18-60.91,2.14-14.54-5.52-28.35-20-36.03-21.76-11.54-61.06-9.21-106.04,32.01-9.53,8.73-24.32,8.08-33.05-1.45s-8.08-24.33,1.45-33.06c53.46-48.98,113.11-63.5,159.58-38.84,31.98,16.97,49.39,50.02,44.35,84.19-3.39,23.05-22.81,78.94-129.4,100-1.52.3-3.06.45-4.56.45Z"/><path class="uuid-fc11ab91-c0e1-4f98-9b21-f62554462d4c" d="m2283.78,1258.41c-31.16,0-63.99-17.3-92.11-49.58-8.48-9.74-7.47-24.52,2.27-33.01,9.74-8.49,24.52-7.47,33,2.27,23.68,27.19,49.6,38.86,69.35,31.21,11.17-4.33,18.22-14.77,17.95-26.59-.4-17.56-17.62-41.95-64.71-57.76-12.24-4.11-18.84-17.38-14.73-29.63,4.11-12.24,17.35-18.84,29.62-14.74,59.48,19.98,95.59,57.76,96.58,101.06.73,31.77-18.04,59.75-47.81,71.29-9.49,3.68-19.38,5.48-29.43,5.48Z"/><path class="uuid-f4ece198-42b0-4159-8dd3-fc1072cddb42" d="m1836.68,1711.34c-100.35,80.82-158.83,203.85-185.77,358.68-7.55,43.38-41.58,77.2-84.81,85.53-217.55,41.93-383.04-194.53-274.05-456.6,143.44-339.16,501.74-298.26,576.24-107.08,16.48,42.29,3.73,91-31.61,119.47Z"/><path class="uuid-f4ece198-42b0-4159-8dd3-fc1072cddb42" d="m2169.97,1711.34c100.35,80.82,158.83,203.85,185.77,358.68,7.55,43.38,41.58,77.2,84.81,85.53,217.55,41.93,383.04-194.53,274.05-456.6-143.44-339.16-501.74-298.26-576.24-107.08-16.48,42.29-3.73,91,31.61,119.47Z"/><path class="uuid-fc11ab91-c0e1-4f98-9b21-f62554462d4c" d="m2133.07,1913.39c-.53,58.46-59.3,137.17-130.91,136.52-71.61-.65-128.95-80.41-128.42-138.87.53-58.46,58.72-73.57,130.33-72.92,71.61.65,129.52,16.82,128.99,75.27Z"/><path class="uuid-fc11ab91-c0e1-4f98-9b21-f62554462d4c" d="m1881,2202.11c-20.27,0-40.75-4.19-60.06-13-46.03-20.99-76.51-64.14-85.82-121.52-2.06-12.75,6.59-24.77,19.35-26.84,12.68-2.07,24.76,6.59,26.84,19.35,6.72,41.44,27.69,72.13,59.05,86.43,45.58,20.8,100.75,3.85,125.61-38.61,9.33-15.82,14.04-34.38,14.04-55.24,0-7.78-.7-16.1-2.08-24.74-2.03-12.76,6.65-24.76,19.41-26.8,12.65-2.01,24.75,6.65,26.79,19.41,1.77,11.07,2.67,21.88,2.67,32.12,0,29.35-6.9,55.91-20.51,78.97-26.22,44.76-75.08,70.46-125.29,70.46Z"/><path class="uuid-fc11ab91-c0e1-4f98-9b21-f62554462d4c" d="m2190.96,2177.99s-3.25,113.34-46.47,151.09c-72.12-105.51-210.12-105.51-282.24,0l-37.69-92.26v-58.83l6.1-12.52c54.47,28.91,123.82,7,155.49-55.89,11.64.09,23.28.09,34.6.09,32.22,63.9,103.4,85.44,158.18,54.23,7.13,8.29,12.03,14.09,12.03,14.09Z"/><path class="uuid-6af81e32-5bb0-4e45-b60e-160dd957de9f" d="m2137.2,2317.01c-71.17,79.51-196.5,79.51-267.68,0,22.8-51.16,74.18-86.87,133.8-86.87s111.08,35.71,133.88,86.87Z"/><path class="uuid-fc11ab91-c0e1-4f98-9b21-f62554462d4c" d="m2125.27,2202.32c-49.91,0-98.27-25.56-124.71-70.65-13.61-22.88-20.56-49.5-20.56-78.98,0-10.26.91-21.08,2.68-32.14,2.04-12.76,14.04-21.45,26.8-19.39,12.76,2.05,21.43,14.05,19.38,26.81-1.38,8.61-2.08,16.93-2.08,24.72,0,20.94,4.72,39.51,14.05,55.19,25.21,42.98,82.48,59.79,127.79,37.6,21.31-10.44,48.48-33.72,56.87-85.37,2.07-12.75,14.09-21.38,26.84-19.34,12.76,2.07,21.41,14.1,19.33,26.85-9.05,55.7-38.34,98.28-82.48,119.89-20.5,10.04-42.36,14.83-63.94,14.83Z"/><path class="uuid-fc11ab91-c0e1-4f98-9b21-f62554462d4c" d="m2003.36,2400.04c-57.77,0-112.91-24.57-151.27-67.42-39.06-43.34-59.73-103.19-59.73-173.04,0-12.92,10.48-23.4,23.4-23.4s23.4,10.47,23.4,23.4c0,58.08,16.51,107.1,47.74,141.76,29.54,33,71.97,51.9,116.46,51.9s86.91-18.9,116.41-51.84c31.28-34.71,47.79-83.73,47.79-141.82,0-12.92,10.48-23.4,23.4-23.4s23.4,10.47,23.4,23.4c0,69.85-20.67,129.71-59.77,173.09-38.31,42.79-93.44,67.36-151.22,67.36Z"/><ellipse class="uuid-fc11ab91-c0e1-4f98-9b21-f62554462d4c" cx="2394.06" cy="1835.23" rx="109.86" ry="153.87"/><ellipse class="uuid-54ce95f1-19e3-49bb-a20b-cb1ba7cce3c0" cx="2420.6" cy="1806.06" rx="26.54" ry="38.27"/><ellipse class="uuid-fc11ab91-c0e1-4f98-9b21-f62554462d4c" cx="1606.39" cy="1835.23" rx="109.86" ry="153.87"/><ellipse class="uuid-54ce95f1-19e3-49bb-a20b-cb1ba7cce3c0" cx="1579.85" cy="1806.06" rx="26.54" ry="38.27"/><path class="uuid-f4ece198-42b0-4159-8dd3-fc1072cddb42" d="m2000.14,610.4c-553.62,0-1020.89,376.83-1158.89,887.51l155.2,38.12c120.81-440.9,525.01-765.83,1003.7-765.83s884.1,325.92,1004.3,767.89l156.26-33.86c-135.8-513.88-604.67-893.83-1160.57-893.83Z"/>
  <g class="uuid-e4cdb14a-2c91-4915-a5fe-1d97b77155d6"><path class="uuid-54ce95f1-19e3-49bb-a20b-cb1ba7cce3c0" d="m2000.14,610.4c-553.62,0-1020.89,376.83-1158.89,887.51l15.9,3.88c155.2-483.29,608.93-833.94,1142.99-833.94s991.45,353.54,1144.82,839.8l15.75-3.42c-135.8-513.88-604.67-893.83-1160.57-893.83Z"/></g><path class="uuid-fc11ab91-c0e1-4f98-9b21-f62554462d4c" d="m3004.42,1561.49c-10.34,0-19.73-6.89-22.55-17.26-120.2-441.96-523.91-750.64-981.74-750.64s-860.35,307.84-981.13,748.62c-3.35,12.23-15.85,19.57-28.14,16.54l-155.2-38.12c-6.12-1.5-11.37-5.41-14.57-10.83-3.2-5.43-4.08-11.91-2.44-17.99,143.97-532.73,629.81-904.8,1181.48-904.8s1041.4,374.72,1183.19,911.25c1.62,6.18.67,12.75-2.67,18.2-3.34,5.45-8.76,9.3-15,10.65l-156.26,33.87c-1.67.36-3.33.53-4.98.53Zm-1004.29-814.69c471.46,0,888.05,312.95,1020.82,763.77l110.63-23.97c-144.22-503.37-605.98-852.8-1131.45-852.8s-983.75,347.15-1129.82,847.16l109.83,26.98c133.53-449.3,549.7-761.14,1020-761.14Z"/><path class="uuid-4d52b873-5d0b-4c31-8484-e041a012d3a7" d="m3083.16,2174.37c-54.23,12.93-108.67-20.51-121.53-74.76l-134.42-563.68-12.66-53.16c-12.93-54.25,20.58-108.7,74.81-121.63,7.82-1.85,15.63-2.74,23.31-2.75,44.19-.07,84.35,29.12,97.06,72.96l.07.27c.34,1.43.75,2.86,1.09,4.28l147.01,616.9c12.93,54.25-20.51,108.63-74.74,121.56Z"/>
  <g class="uuid-03e4ed72-a85a-4724-98cb-1cbff72d1705"><path class="uuid-fc11ab91-c0e1-4f98-9b21-f62554462d4c" d="m3115.21,1873.6l42.72,179.23c12.92,54.21-20.56,108.67-74.76,121.59-54.19,12.92-108.64-20.57-121.56-74.78l-42.72-179.23c12.92,54.21,67.37,87.7,121.56,74.78,54.19-12.92,87.68-67.38,74.76-121.59Z"/></g>
  <g class="uuid-e4cdb14a-2c91-4915-a5fe-1d97b77155d6"><path class="uuid-54ce95f1-19e3-49bb-a20b-cb1ba7cce3c0" d="m3024.37,1492.93c-6.43-27.12-23.32-49.06-45.3-62.56-21.98-13.64-49.18-18.7-76.23-12.26-52.94,12.66-86.18,64.8-75.63,117.82l-12.66-53.16c-12.93-54.25,20.58-108.7,74.81-121.63,7.82-1.85,15.63-2.74,23.31-2.75,44.19-.07,84.35,29.12,97.06,72.96l.07.27,14.57,61.32Z"/></g><path class="uuid-fc11ab91-c0e1-4f98-9b21-f62554462d4c" d="m3059.76,2200.56c-56.22,0-107.33-38.48-120.92-95.52l-147.02-616.86c-7.7-32.31-2.37-65.68,15.03-93.97,17.4-28.29,44.77-48.11,77.06-55.82,32.31-7.7,65.67-2.36,93.95,15.04,28.29,17.4,48.1,44.77,55.8,77.08l147.03,616.86c7.7,32.31,2.37,65.68-15.03,93.97-17.4,28.29-44.77,48.11-77.06,55.82h0c-9.64,2.3-19.31,3.4-28.83,3.4Zm23.4-26.16h.07-.07Zm-170.28-792.63c-6.03,0-12.11.71-18.13,2.14-20.14,4.8-37.21,17.17-48.06,34.81-10.84,17.64-14.17,38.45-9.37,58.6l147.02,616.86c9.92,41.59,51.8,67.37,93.39,57.44h0c20.15-4.8,37.22-17.17,48.07-34.81,10.84-17.64,14.17-38.45,9.37-58.6l-147.03-616.86c-4.8-20.15-17.16-37.22-34.79-48.07-12.37-7.61-26.3-11.52-40.47-11.52Z"/><path class="uuid-f4ece198-42b0-4159-8dd3-fc1072cddb42" d="m3452.01,1736.5c.22,151.85-103.46,289.64-257.59,326.38l-32.28,7.66-141.81-595.01-13.68-57.37,32.28-7.66c172.83-41.26,346.27,59.47,397.98,226.95q.07.07.07.14c2.12,7,4.1,14.14,5.81,21.34,6.23,25.97,9.19,51.94,9.22,77.58Z"/>
  <g class="uuid-03e4ed72-a85a-4724-98cb-1cbff72d1705"><path class="uuid-fc11ab91-c0e1-4f98-9b21-f62554462d4c" d="m3442.79,1658.92c21.46,90.05,4.37,180.34-40.56,253.42-44.91,73.17-117.69,129.06-207.81,150.55l-32.25,7.69-40.12-168.3,32.25-7.69c90.12-21.49,162.87-77.46,207.81-150.55,30.42-49.48,48.07-106.82,49.62-166.6,13.57,25.13,24.12,52.37,31.06,81.48Z"/></g>
  <g class="uuid-e4cdb14a-2c91-4915-a5fe-1d97b77155d6"><path class="uuid-54ce95f1-19e3-49bb-a20b-cb1ba7cce3c0" d="m3443.77,1676.88c-58.22-156.52-225.33-248.62-391.84-208.87l-31.6,7.53-13.68-57.37,32.28-7.66c172.83-41.26,346.27,59.47,397.98,226.95q.07.07.07.14c3.08,13.12,5.27,26.17,6.79,39.3Z"/></g><path class="uuid-fc11ab91-c0e1-4f98-9b21-f62554462d4c" d="m3162.14,2093.99c-10.58,0-20.18-7.23-22.74-17.98l-155.51-652.43c-1.44-6.04-.42-12.4,2.83-17.68,3.25-5.29,8.46-9.06,14.5-10.5l32.24-7.69c192.38-45.88,386.21,73.35,432.08,265.78,45.86,192.43-73.34,386.3-265.72,432.18h0l-32.24,7.69c-1.83.44-3.65.64-5.45.64Zm-127.31-658.5l144.66,606.9,9.49-2.26c81.03-19.32,149.69-69.05,193.33-140.03,43.64-70.98,57.03-154.71,37.71-235.76-39.88-167.33-208.42-271-375.7-231.11l-9.49,2.26Z"/><path class="uuid-4d52b873-5d0b-4c31-8484-e041a012d3a7" d="m917.29,2174.37c54.23,12.93,108.67-20.51,121.53-74.76l134.42-563.68,12.66-53.16c12.93-54.25-20.58-108.7-74.81-121.63-7.82-1.85-15.63-2.74-23.31-2.75-44.19-.07-84.35,29.12-97.06,72.96l-.07.27c-.34,1.43-.75,2.86-1.09,4.28l-147.01,616.9c-12.93,54.25,20.51,108.63,74.74,121.56Z"/>
  <g class="uuid-03e4ed72-a85a-4724-98cb-1cbff72d1705"><path class="uuid-fc11ab91-c0e1-4f98-9b21-f62554462d4c" d="m885.24,1873.6l-42.72,179.23c-12.92,54.21,20.56,108.67,74.76,121.59,54.19,12.92,108.64-20.57,121.56-74.78l42.72-179.23c-12.92,54.21-67.37,87.7-121.56,74.78-54.19-12.92-87.68-67.38-74.76-121.59Z"/></g>
  <g class="uuid-e4cdb14a-2c91-4915-a5fe-1d97b77155d6"><path class="uuid-54ce95f1-19e3-49bb-a20b-cb1ba7cce3c0" d="m976.09,1492.93c6.43-27.12,23.32-49.06,45.3-62.56,21.98-13.64,49.18-18.7,76.23-12.26,52.94,12.66,86.18,64.8,75.63,117.82l12.66-53.16c12.93-54.25-20.58-108.7-74.81-121.63-7.82-1.85-15.63-2.74-23.31-2.75-44.19-.07-84.35,29.12-97.06,72.96l-.07.27-14.57,61.32Z"/></g><path class="uuid-fc11ab91-c0e1-4f98-9b21-f62554462d4c" d="m940.7,2200.56c-9.52,0-19.18-1.1-28.82-3.4h0c-32.3-7.71-59.66-27.53-77.06-55.82-17.39-28.29-22.73-61.66-15.03-93.97l147.03-616.86c7.7-32.31,27.52-59.68,55.8-77.08,28.27-17.4,61.66-22.73,93.94-15.04,32.31,7.71,59.67,27.53,77.07,55.82,17.39,28.29,22.73,61.67,15.03,93.97l-147.02,616.86c-13.6,57.04-64.7,95.52-120.92,95.52Zm-17.98-48.93c41.55,9.89,83.48-15.86,93.39-57.44l147.02-616.86c4.8-20.15,1.47-40.96-9.37-58.6-10.85-17.64-27.92-30-48.07-34.81-20.12-4.81-40.94-1.47-58.58,9.37-17.64,10.85-29.99,27.92-34.79,48.07l-147.03,616.87c-4.8,20.15-1.47,40.96,9.37,58.6,10.85,17.64,27.92,30,48.07,34.81h0Z"/><path class="uuid-f4ece198-42b0-4159-8dd3-fc1072cddb42" d="m548.44,1736.5c-.22,151.85,103.46,289.64,257.59,326.38l32.28,7.66,141.81-595.01,13.68-57.37-32.28-7.66c-172.83-41.26-346.27,59.47-397.98,226.95q-.07.07-.07.14c-2.12,7-4.1,14.14-5.81,21.34-6.23,25.97-9.19,51.94-9.22,77.58Z"/>
  <g class="uuid-03e4ed72-a85a-4724-98cb-1cbff72d1705"><path class="uuid-fc11ab91-c0e1-4f98-9b21-f62554462d4c" d="m557.66,1658.92c-21.46,90.05-4.37,180.34,40.56,253.42,44.91,73.17,117.69,129.06,207.81,150.55l32.25,7.69,40.12-168.3-32.25-7.69c-90.12-21.49-162.87-77.46-207.81-150.55-30.42-49.48-48.07-106.82-49.62-166.6-13.57,25.13-24.12,52.37-31.06,81.48Z"/></g>
  <g class="uuid-e4cdb14a-2c91-4915-a5fe-1d97b77155d6"><path class="uuid-54ce95f1-19e3-49bb-a20b-cb1ba7cce3c0" d="m556.68,1676.88c58.22-156.52,225.33-248.62,391.84-208.87l31.6,7.53,13.68-57.37-32.28-7.66c-172.83-41.26-346.27,59.47-397.98,226.95q-.07.07-.07.14c-3.08,13.12-5.27,26.17-6.79,39.3Z"/></g><path class="uuid-fc11ab91-c0e1-4f98-9b21-f62554462d4c" d="m838.31,2093.99c-1.8,0-3.62-.21-5.45-.64l-32.24-7.69c-93.19-22.22-172.15-79.42-222.34-161.04-50.18-81.62-65.59-177.92-43.37-271.13,45.87-192.43,239.68-311.66,432.07-265.78l32.24,7.69c6.03,1.44,11.25,5.22,14.5,10.5,3.25,5.29,4.27,11.65,2.83,17.68l-155.51,652.43c-2.56,10.74-12.16,17.98-22.74,17.98Zm45.48-669.3c-141.06,0-269.26,96.54-303.37,239.65-39.88,167.33,63.77,335.91,231.05,375.8h0l9.48,2.26,144.66-606.9-9.48-2.26c-24.21-5.78-48.47-8.54-72.34-8.54Z"/><path class="uuid-2ae20097-9210-4d2e-9e4a-15a6f40800ea" d="m3099.92,2943.97c-21.76-18.35-49.97-29.43-80.91-29.43H981.44c-75.07,0-133.53,65.23-125.42,139.86l65.71,602.54c310.02,202.4,680.4,320.06,1078.27,320.06s768.64-117.78,1078.75-320.38l65.68-602.22c4.78-43.84-13.42-84.41-44.51-110.43Z"/>
  <g class="uuid-e6e62de6-6926-4831-bb96-953b99865da6"><path class="uuid-1169741d-5e2c-41f3-ab4c-8484949dfaf1" d="m3144.43,3054.4l-2.43,22.45c-6.22-27.08-21.31-51.04-42.08-68.41-21.76-18.35-49.97-29.43-80.91-29.43H981.44c-60.51,0-110.25,42.4-122.99,97.91l-2.43-22.53c-8.11-74.63,50.35-139.86,125.42-139.86h2037.58c30.94,0,59.14,11.07,80.91,29.43,31.09,26.01,49.29,66.59,44.51,110.43Z"/></g>
  <g class="uuid-179ffe92-f7d9-4adb-8d19-8e8314093daf"><path class="uuid-f4ece198-42b0-4159-8dd3-fc1072cddb42" d="m3044.81,3038.43c-254.86,421.39-575.08,736.61-965.98,937.02,334.03-13.11,646.75-109.19,918.13-268.19l72.09-661.05c.01-.12.03-.24.04-.36,1.35-13.59-17.22-19.1-24.28-7.42Z"/></g><ellipse class="uuid-fc11ab91-c0e1-4f98-9b21-f62554462d4c" cx="2000.23" cy="3618" rx="125.35" ry="100.49"/>
  <g class="uuid-e6e62de6-6926-4831-bb96-953b99865da6"><path class="uuid-1169741d-5e2c-41f3-ab4c-8484949dfaf1" d="m2136.94,3626.87c0,55.44-56.11,100.49-125.34,100.49-36.78,0-69.84-12.74-92.81-32.92,21.91,15.02,50.42,24.04,81.44,24.04,69.23,0,125.34-44.98,125.34-100.49,0-25.94-12.28-49.6-32.38-67.43,26.77,18.43,43.75,45.73,43.75,76.3Z"/></g><path class="uuid-fc11ab91-c0e1-4f98-9b21-f62554462d4c" d="m3130.36,2953.85c-28.32-31.58-68.9-49.7-111.31-49.7H981.41c-42.41,0-82.99,18.12-111.31,49.7-28.32,31.59-41.93,73.89-37.32,116.07l56.43,517.43h0l7.17,65.75v.02c4.58,3.09,9.17,6.15,13.77,9.2,1.59,1.05,3.18,2.1,4.78,3.14,3,1.98,6.01,3.95,9.02,5.91,1.94,1.27,3.89,2.52,5.84,3.78,2.68,1.73,5.37,3.46,8.06,5.18,2.07,1.32,4.14,2.64,6.21,3.96,1,.63,1.99,1.27,2.99,1.9v-.02c304.78,192.44,665.86,303.82,1052.95,303.82s748.55-111.5,1053.44-304.13v.02c.97-.61,1.93-1.24,2.9-1.85,2.13-1.35,4.25-2.71,6.38-4.06,2.63-1.68,5.26-3.37,7.88-5.07,2-1.29,3.99-2.58,5.99-3.88,2.97-1.93,5.93-3.88,8.89-5.83,1.63-1.07,3.26-2.14,4.88-3.22,4.6-3.05,9.18-6.11,13.75-9.2l.02-.2,7.16-65.66h0l56.39-517.02c4.6-42.18-9-84.48-37.32-116.07Zm-9.18,111l-60.75,556.99h0c-304.08,201.08-668.58,318.17-1060.43,318.17s-755.95-116.96-1059.94-317.85h0l-60.78-557.31c-3.16-28.98,6.19-58.05,25.65-79.75,19.46-21.7,47.34-34.15,76.48-34.15h2037.64c29.14,0,57.02,12.45,76.48,34.15,19.46,21.7,28.8,50.77,25.65,79.75Z"/>
</svg>
